<svg width="64px" height="64px" viewBox="0 0 48.00 48.00" id="Layer_2" data-name="Layer 2" xmlns="http://www.w3.org/2000/svg" fill="#ffffff" stroke="#ffffff" stroke-width="0.00048000000000000007"><g id="SVGRepo_bgCarrier" stroke-width="0"></g><g id="SVGRepo_tracerCarrier" stroke-linecap="round" stroke-linejoin="round" stroke="#CCCCCC" stroke-width="2.88"><defs><style>.cls-1{fill:none;stroke:#ffffff;stroke-linecap:round;stroke-linejoin:round;}</style></defs><path class="cls-1" d="M40.5,5.5H7.5a2,2,0,0,0-2,2v33a2,2,0,0,0,2,2h33a2,2,0,0,0,2-2V7.5A2,2,0,0,0,40.5,5.5Z"></path><path class="cls-1" d="M15,37.4V10.5h9a9,9,0,0,1,0,18.07H15"></path><line class="cls-1" x1="24" y1="28.57" x2="32.91" y2="37.5"></line></g><g id="SVGRepo_iconCarrier"><defs><style>.cls-1{fill:none;stroke:#ffffff;stroke-linecap:round;stroke-linejoin:round;}</style></defs><path class="cls-1" d="M40.5,5.5H7.5a2,2,0,0,0-2,2v33a2,2,0,0,0,2,2h33a2,2,0,0,0,2-2V7.5A2,2,0,0,0,40.5,5.5Z"></path><path class="cls-1" d="M15,37.4V10.5h9a9,9,0,0,1,0,18.07H15"></path><line class="cls-1" x1="24" y1="28.57" x2="32.91" y2="37.5"></line></g></svg>